<svg id="Layer_1" data-name="Layer 1" xmlns="http://www.w3.org/2000/svg" viewBox="0 0 38 36.9"><defs><style>.cls-1{fill:#fff;}.cls-2{fill:#ebebeb;}.cls-3{fill:#0a2b42;}.cls-4{fill:#208ad3;}.cls-5{fill:#0f4266;}.cls-6{fill:#231f20;}</style></defs><path class="cls-1" d="M49,47v-.49a.55.55,0,1,1,0-1.1V44.7a.55.55,0,1,1,0-1.1v-.66a.56.56,0,0,1-.57-.55.55.55,0,0,1,.57-.55v-.65a.55.55,0,1,1,0-1.1v-.66a.55.55,0,1,1,0-1.1v-.66a.56.56,0,0,1-.57-.55.55.55,0,0,1,.57-.55v-.66a.55.55,0,1,1,0-1.1v-.65a.55.55,0,1,1,0-1.1V32.5a.56.56,0,0,1-.57-.55A.55.55,0,0,1,49,31.4v-.66a.55.55,0,1,1,0-1.1V29a.56.56,0,0,1-.57-.55A.55.55,0,0,1,49,27.9v-.65a.55.55,0,1,1,0-1.1v-.66a.55.55,0,1,1,0-1.1v-.66a.56.56,0,0,1-.57-.55.55.55,0,0,1,.57-.55V22a.55.55,0,1,1,0-1.1v-.65a.55.55,0,1,1,0-1.1v-.66a.55.55,0,1,1,0-1.1V16.7a.55.55,0,1,1,0-1.1v-.66a.56.56,0,0,1-.57-.55.55.55,0,0,1,.57-.55v-.65a.55.55,0,1,1,0-1.1v-.66a.56.56,0,0,1-.57-.55h-.67a.57.57,0,0,1-1.14,0H46a.57.57,0,0,1-1.14,0h-.67a.56.56,0,0,1-.57.55c-.32,0-.57-.13-.57-.43h-.67a.57.57,0,0,1-1.14,0h-.67a.57.57,0,0,1-1.14,0h-.67a.56.56,0,0,1-.57.55.55.55,0,0,1-.57-.55H36.9a.56.56,0,0,1-.57.55.55.55,0,0,1-.57-.55h-.67A.57.57,0,0,1,34,11h-.67a.57.57,0,0,1-1.14,0h-.67a.56.56,0,0,1-.57.55.55.55,0,0,1-.57-.55h-.67a.57.57,0,0,1-1.14,0h-.67a.56.56,0,0,1-.57.55.55.55,0,0,1-.57-.55H26a.56.56,0,0,1-.57.55A.55.55,0,0,1,24.9,11h-.67a.57.57,0,0,1-1.14,0h-.67a.56.56,0,0,1-.57.55.55.55,0,0,1-.57-.55h-.67a.56.56,0,0,1-.57.55.55.55,0,0,1-.57-.55H18.8a.56.56,0,0,1-.57.55.55.55,0,0,1-.57-.55H17a.57.57,0,0,1-1.14,0h-.67a.56.56,0,0,1-.57.55.55.55,0,0,1-.57-.55h-.67a.56.56,0,0,1-.57.55.55.55,0,0,1-.57-.55h-.67a.56.56,0,0,1-.57.55h0v.65h0a.55.55,0,1,1,0,1.1h0V14h0a.55.55,0,1,1,0,1.1h0v.65h0a.56.56,0,0,1,.57.55.55.55,0,0,1-.57.55h0v.65h0a.55.55,0,1,1,0,1.1h0v.65h0a.55.55,0,1,1,0,1.1h0V21h0a.55.55,0,1,1,0,1.1h0v.65h0a.56.56,0,0,1,.57.55.55.55,0,0,1-.57.55h0v.65h0a.56.56,0,0,1,.57.55.55.55,0,0,1-.57.55h0v.65h0a.55.55,0,1,1,0,1.1h0V28h0a.56.56,0,0,1,.57.55.55.55,0,0,1-.57.55h0v.65h0a.55.55,0,1,1,0,1.1h0v.65h0a.55.55,0,1,1,0,1.1h0v.65h0a.55.55,0,1,1,0,1.1h0V35h0a.56.56,0,0,1,.57.55.55.55,0,0,1-.57.55h0v.65h0a.55.55,0,1,1,0,1.1h0v.65h0a.55.55,0,1,1,0,1.1h0v.65h0a.55.55,0,1,1,0,1.1h0V42h0a.55.55,0,1,1,0,1.1h0v.65h0a.55.55,0,1,1,0,1.1h0v.65h0a.55.55,0,1,1,0,1.1h0v.65a.56.56,0,0,1,.57.55v0h.67a.56.56,0,0,1,.57-.55.55.55,0,0,1,.57.55h.67a.56.56,0,0,1,.57-.55.55.55,0,0,1,.57.55h.67a.57.57,0,0,1,1.14,0h.67a.56.56,0,0,1,.57-.55.55.55,0,0,1,.57.55h.67a.56.56,0,0,1,.57-.55.55.55,0,0,1,.57.55h.67a.56.56,0,0,1,.57-.55.55.55,0,0,1,.57.55h.67a.57.57,0,0,1,1.14,0h.67a.56.56,0,0,1,.57-.55.55.55,0,0,1,.57.55h.67a.56.56,0,0,1,.57-.55.55.55,0,0,1,.57.55h.67a.57.57,0,0,1,1.14,0h.67a.56.56,0,0,1,.57-.55.55.55,0,0,1,.57.55h.67a.57.57,0,0,1,1.14,0H34a.57.57,0,0,1,1.14,0h.67a.56.56,0,0,1,.57-.55.55.55,0,0,1,.57.55h.67a.56.56,0,0,1,.57-.55.55.55,0,0,1,.57.55h.67a.57.57,0,0,1,1.14,0h.67a.57.57,0,0,1,1.14,0H43a.56.56,0,0,1,.57-.55.55.55,0,0,1,.57.55h.67a.57.57,0,0,1,1.14,0h.67a.57.57,0,0,1,1.14,0h.67C48.43,47.2,48.69,47,49,47Z" transform="translate(-11 -10.88)"/><rect class="cls-2" x="1.72" y="1.77" width="34.56" height="33.2"/><path class="cls-3" d="M45.54,38.25H34.31a6.51,6.51,0,0,0-3.46,1H29.14a6.51,6.51,0,0,0-3.46-1H14.45a.5.5,0,0,0,0,1H25.68a5.45,5.45,0,0,1,3,.92.54.54,0,0,0,.28.08h2a.54.54,0,0,0,.28-.08,5.45,5.45,0,0,1,3-.92H45.54a.5.5,0,0,0,.5-.5A.5.5,0,0,0,45.54,38.25Z" transform="translate(-11 -10.88)"/><polygon class="cls-3" points="5.37 26.37 5.37 26.38 5.38 26.38 5.37 26.37"/><path class="cls-4" d="M18.9,36.26a13,13,0,0,0,1.7-.42c.68-.2,1.46-.42,2.29-.58,3-.56,5.39,1.56,6.61,3h1.07l.06,0c0-.15.07-.28.09-.42A7.05,7.05,0,0,1,36,35.25a32.9,32.9,0,0,1,7.41,1,9.15,9.15,0,0,1-.34-1.53.5.5,0,0,0-.5-.44,11.13,11.13,0,0,1-2.41-.41,17.88,17.88,0,0,0-3.57-.58,6.53,6.53,0,0,0-5.51,3.25A7,7,0,0,1,33,33.59c2.92-2.65,7.47-2.33,7.51-2.33a.5.5,0,1,0,.08-1c-.2,0-5-.35-8.26,2.58a8.42,8.42,0,0,0-2.59,5c-1-1.88-2.93-4.57-6.15-4.57h-.08a8.81,8.81,0,0,0-3,.51,8.79,8.79,0,0,1-3,.49.5.5,0,0,0-.49.51,6.75,6.75,0,0,1-.21,1.54A7.28,7.28,0,0,0,18.9,36.26Z" transform="translate(-11 -10.88)"/><path class="cls-5" d="M23.07,36.25c-.79.15-1.54.36-2.2.55a14.67,14.67,0,0,1-1.83.45h6.64a7.19,7.19,0,0,1,1.47.16A5.14,5.14,0,0,0,23.07,36.25Z" transform="translate(-11 -10.88)"/><path class="cls-5" d="M36,36.25a5.84,5.84,0,0,0-3.5,1.23,7.64,7.64,0,0,1,1.79-.23H43.4A32.81,32.81,0,0,0,36,36.25Z" transform="translate(-11 -10.88)"/><path class="cls-6" d="M33.92,20.33c-.46-1.28-1.21-2.54-3.74-2.54-2.1,0-2.82,1.1-2.82,2.11,0,1.34,1.18,2,3.41,2.85,3.22,1.2,4.62,2.09,4.62,3.93,0,2-2.45,3.58-5.91,3.58a15,15,0,0,1-4.11-.64,20.8,20.8,0,0,1-.73-2.9l.83-.16a4.54,4.54,0,0,0,4.51,3c1.93,0,3.12-1,3.12-2.23,0-1.49-1.1-2.09-3.47-3-2.82-1.1-4.41-2-4.41-3.83s2-3.35,5.54-3.35a23.27,23.27,0,0,1,3.55.37c.11.7.21,1.47.43,2.73Z" transform="translate(-11 -10.88)"/></svg>