<svg id="Layer_1" data-name="Layer 1" xmlns="http://www.w3.org/2000/svg" viewBox="0 0 38 36.92"><defs><style>.cls-1{fill:#eaf1fa;}.cls-2{fill:#fff;}.cls-3{fill:#0a2b42;}.cls-4{fill:#208ad3;}.cls-5{fill:#0f4266;}.cls-6{fill:#231f20;}</style></defs><path class="cls-1" d="M38,36.12v-.49a.55.55,0,0,1-.55-.55.55.55,0,0,1,.55-.55h0v-.71a.55.55,0,0,1-.55-.55.55.55,0,0,1,.55-.55h0v-.66a.56.56,0,0,1-.57-.55h0A.55.55,0,0,1,38,31h0v-.65a.55.55,0,0,1-.55-.55.55.55,0,0,1,.55-.55h0v-.66a.55.55,0,0,1-.55-.55.55.55,0,0,1,.55-.55h0v-.66a.56.56,0,0,1-.57-.55h0a.55.55,0,0,1,.55-.55h0V25a.55.55,0,0,1-.55-.55.55.55,0,0,1,.55-.55h0v-.65a.55.55,0,0,1-.55-.55.55.55,0,0,1,.55-.55h0v-.56a.56.56,0,0,1-.57-.55h0a.55.55,0,0,1,.55-.55h0v-.66a.55.55,0,0,1,0-1.1v-.64a.56.56,0,0,1-.57-.55h0A.55.55,0,0,1,38,17h0v-.65a.55.55,0,0,1,0-1.1v-.66a.55.55,0,1,1,0-1.1v-.66a.56.56,0,0,1-.57-.55h0a.55.55,0,0,1,.55-.55h0v-.63A.55.55,0,1,1,38,10V9.37a.55.55,0,1,1,0-1.1V7.61a.55.55,0,1,1,0-1.1V5.82a.55.55,0,1,1,0-1.1V4.06a.56.56,0,0,1-.57-.55h0A.55.55,0,0,1,38,3h0V2.31a.55.55,0,0,1,0-1.1V.55A.56.56,0,0,1,37.43,0h-.67a.58.58,0,0,1-.57.57A.58.58,0,0,1,35.62,0H35a.58.58,0,0,1-.57.57A.58.58,0,0,1,33.86,0h-.67a.56.56,0,0,1-.57.55h0c-.32,0-.57-.13-.57-.43h-.67a.57.57,0,1,1-1.14,0h-.67a.57.57,0,1,1-1.14,0h-.67a.56.56,0,0,1-.57.55h0a.56.56,0,0,1-.57-.53v0H25.9a.56.56,0,0,1-.57.55h0a.56.56,0,0,1-.57-.53v0h-.67a.57.57,0,0,1-.71.38A.6.6,0,0,1,23,.12h-.67a.57.57,0,0,1-1.14,0h-.67A.56.56,0,0,1,20,.67h0a.56.56,0,0,1-.57-.53v0h-.67a.57.57,0,1,1-1.14,0H16.9a.56.56,0,0,1-.57.55h0a.56.56,0,0,1-.57-.53v0H15a.56.56,0,0,1-.57.55h0A.54.54,0,0,1,13.9.12h-.67a.57.57,0,0,1-1.14,0h-.67a.56.56,0,0,1-.57.55h0a.56.56,0,0,1-.57-.53v0H9.61A.56.56,0,0,1,9,.67H9A.56.56,0,0,1,8.47.14v0H7.8a.56.56,0,0,1-.57.55h0A.56.56,0,0,1,6.66.14v0H6a.57.57,0,1,1-1.14,0H4.19a.56.56,0,0,1-.57.55h0A.56.56,0,0,1,3.05.14v0H2.38a.56.56,0,0,1-.57.55h0A.56.56,0,0,1,1.24.14v0H.57A.56.56,0,0,1,0,.67H0v.65H0a.55.55,0,0,1,.55.55A.55.55,0,0,1,0,2.42H0v.7H0a.55.55,0,0,1,.55.55A.55.55,0,0,1,0,4.22H0v.65H0a.56.56,0,0,1,.57.55h0A.55.55,0,0,1,0,6H0v.65H0a.55.55,0,0,1,.55.55A.55.55,0,0,1,0,7.72H0v.65H0a.55.55,0,0,1,.55.55A.55.55,0,0,1,0,9.47H0v.65H0a.55.55,0,0,1,.55.55.55.55,0,0,1-.55.55H0v.65H0a.56.56,0,0,1,.57.55h0A.55.55,0,0,1,0,13H0v.65H0a.56.56,0,0,1,.57.55h0a.55.55,0,0,1-.55.55H0v.65H0a.55.55,0,0,1,.55.55.55.55,0,0,1-.55.55H0v.65H0a.56.56,0,0,1,.57.55h0a.55.55,0,0,1-.55.55H0v.65H0a.55.55,0,0,1,.55.55A.55.55,0,0,1,0,20H0v.65H0a.55.55,0,0,1,.55.55.55.55,0,0,1-.55.55H0v.65H0a.55.55,0,0,1,.55.55.55.55,0,0,1-.55.55H0v.65H0a.56.56,0,0,1,.57.55h0a.55.55,0,0,1-.55.55H0v.65H0a.55.55,0,0,1,.55.55A.55.55,0,0,1,0,27H0v.65H0a.55.55,0,0,1,.55.55.55.55,0,0,1-.55.55H0v.65H0a.55.55,0,0,1,.55.55.55.55,0,0,1-.55.55H0v.65H0a.55.55,0,0,1,.55.55.55.55,0,0,1-.55.55H0v.65H0a.55.55,0,0,1,.55.55A.55.55,0,0,1,0,34H0v.65H0a.55.55,0,0,1,.55.55.55.55,0,0,1-.55.55H0v.65a.56.56,0,0,1,.57.55h.67a.56.56,0,0,1,.57-.55h0a.56.56,0,0,1,.57.53v0h.67a.56.56,0,0,1,.57-.55h0a.56.56,0,0,1,.57.53v0h.67a.57.57,0,0,1,1.14,0h.67a.56.56,0,0,1,.57-.55h0a.56.56,0,0,1,.57.53v0h.67a.56.56,0,0,1,.57-.55h0a.56.56,0,0,1,.57.53v0h.67a.56.56,0,0,1,.57-.55h0a.56.56,0,0,1,.57.53v0h.67a.57.57,0,0,1,1.14,0h.67a.56.56,0,0,1,.57-.55h0a.56.56,0,0,1,.57.53v0h.67a.56.56,0,0,1,.57-.55h0a.56.56,0,0,1,.57.53v0h.67a.57.57,0,0,1,1.14,0h.67a.56.56,0,0,1,.57-.55h0a.56.56,0,0,1,.57.53v0h.67a.57.57,0,0,1,1.14,0H23a.57.57,0,0,1,1.14,0h.67a.56.56,0,0,1,.57-.55h0a.56.56,0,0,1,.57.53v0h.67a.56.56,0,0,1,.57-.55h0a.56.56,0,0,1,.57.53v0h.67a.57.57,0,0,1,1.14,0h.67a.57.57,0,0,1,1.14,0H32a.56.56,0,0,1,.57-.55h0a.56.56,0,0,1,.57.53v0h.67a.57.57,0,0,1,1.14,0h.67a.57.57,0,0,1,1.14,0h.67C37.43,36.32,37.69,36.12,38,36.12Z" transform="translate(0)"/><rect class="cls-2" x="1.72" y="1.77" width="34.56" height="33.2"/><path class="cls-3" d="M34.54,27.37H23.31a6.54,6.54,0,0,0-3.46,1H18.14a6.54,6.54,0,0,0-3.46-1H3.45a.5.5,0,1,0,0,1H14.68a5.52,5.52,0,0,1,3,.92.54.54,0,0,0,.28.08h2a.54.54,0,0,0,.28-.08,5.52,5.52,0,0,1,3-.92h11.3a.5.5,0,0,0,0-1Z" transform="translate(0)"/><polygon class="cls-3" points="5.37 26.37 5.37 26.38 5.38 26.38 5.37 26.37"/><path class="cls-4" d="M7.9,25.38A12.41,12.41,0,0,0,9.6,25c.68-.2,1.46-.42,2.29-.58,3-.56,5.39,1.56,6.61,3h1.13a2.84,2.84,0,0,1,.09-.42A7.05,7.05,0,0,1,25,24.37a33.05,33.05,0,0,1,7.41,1,8.9,8.9,0,0,1-.34-1.53.51.51,0,0,0-.5-.44A11.57,11.57,0,0,1,29.16,23a18,18,0,0,0-3.57-.58,6.53,6.53,0,0,0-5.51,3.25A7,7,0,0,1,22,22.71c2.92-2.65,7.47-2.33,7.51-2.33a.5.5,0,1,0,.08-1c-.2,0-5-.35-8.26,2.58a8.42,8.42,0,0,0-2.59,5c-1-1.88-2.93-4.57-6.15-4.57h-.08a8.76,8.76,0,0,0-3,.51,8.74,8.74,0,0,1-3,.49A.5.5,0,0,0,6,23.9H6a6.64,6.64,0,0,1-.21,1.54A7.32,7.32,0,0,0,7.9,25.38Z" transform="translate(0)"/><path class="cls-5" d="M12.07,25.37c-.79.15-1.54.36-2.2.55A14.37,14.37,0,0,1,8,26.37h6.64a7.27,7.27,0,0,1,1.47.16A5.12,5.12,0,0,0,12.07,25.37Z" transform="translate(0)"/><path class="cls-5" d="M25,25.37a5.84,5.84,0,0,0-3.5,1.23,7.77,7.77,0,0,1,1.79-.23H32.4A33,33,0,0,0,25,25.37Z" transform="translate(0)"/><path class="cls-6" d="M22.92,9.45c-.46-1.28-1.21-2.54-3.74-2.54-2.1,0-2.82,1.1-2.82,2.11,0,1.34,1.18,2,3.41,2.85C23,13.07,24.39,14,24.39,15.8c0,2-2.45,3.58-5.91,3.58a15.06,15.06,0,0,1-4.11-.64,20.86,20.86,0,0,1-.73-2.9l.83-.16a4.54,4.54,0,0,0,4.51,3c1.93,0,3.12-1,3.12-2.23,0-1.49-1.1-2.09-3.47-3-2.82-1.1-4.41-2-4.41-3.83s2-3.35,5.54-3.35a23.48,23.48,0,0,1,3.55.37c.11.7.21,1.47.43,2.73Z" transform="translate(0)"/></svg>